<svg xmlns="http://www.w3.org/2000/svg" viewBox="83.75 243.75 1088.5 711.5">
    <path d="M 683.0 851.0 L 676.0 851.0 L 675.0 850.0 L 611.0 850.0 L 600.0 852.0 L 590.0 857.0 L 583.0 864.0 L 577.0 877.0 L 571.0 894.0 L 571.0 903.0 L 572.0 905.0 L 575.0 908.0 L 585.0 911.0 L 605.0 912.0 L 622.0 914.0 L 626.0 917.0 L 626.0 923.0 L 625.0 925.0 L 619.0 930.0 L 571.0 930.0 L 570.0 931.0 L 562.0 931.0 L 551.0 952.0 L 551.0 954.0 L 631.0 954.0 L 640.0 951.0 L 645.0 948.0 L 654.0 938.0 L 663.0 915.0 L 664.0 911.0 L 664.0 902.0 L 662.0 898.0 L 656.0 894.0 L 649.0 892.0 L 614.0 889.0 L 609.0 885.0 L 610.0 880.0 L 613.0 876.0 L 617.0 874.0 L 669.0 874.0 L 678.0 861.0 Z M 474.0 851.0 L 473.0 855.0 L 470.0 860.0 L 469.0 865.0 L 465.0 874.0 L 518.0 874.0 L 522.0 875.0 L 525.0 878.0 L 525.0 884.0 L 524.0 887.0 L 521.0 891.0 L 479.0 890.0 L 470.0 891.0 L 463.0 893.0 L 455.0 897.0 L 448.0 904.0 L 442.0 916.0 L 435.0 936.0 L 435.0 943.0 L 436.0 946.0 L 440.0 951.0 L 448.0 954.0 L 486.0 954.0 L 493.0 952.0 L 500.0 948.0 L 500.0 954.0 L 535.0 953.0 L 536.0 948.0 L 547.0 919.0 L 550.0 914.0 L 565.0 873.0 L 566.0 866.0 L 564.0 858.0 L 560.0 854.0 L 556.0 852.0 L 547.0 850.0 Z M 475.0 921.0 L 477.0 917.0 L 482.0 912.0 L 484.0 911.0 L 488.0 910.0 L 512.0 910.0 L 513.0 914.0 L 512.0 919.0 L 510.0 924.0 L 509.0 926.0 L 505.0 930.0 L 503.0 931.0 L 497.0 932.0 L 486.0 932.0 L 479.0 931.0 L 477.0 930.0 L 475.0 928.0 Z M 247.0 954.0 L 283.0 954.0 L 310.0 882.0 L 318.0 876.0 L 335.0 877.0 L 338.0 880.0 L 338.0 886.0 L 312.0 954.0 L 349.0 954.0 L 375.0 883.0 L 379.0 878.0 L 384.0 876.0 L 400.0 877.0 L 403.0 880.0 L 404.0 884.0 L 378.0 954.0 L 414.0 954.0 L 443.0 877.0 L 444.0 862.0 L 442.0 858.0 L 437.0 853.0 L 426.0 850.0 L 395.0 850.0 L 383.0 853.0 L 376.0 857.0 L 372.0 853.0 L 364.0 850.0 L 331.0 850.0 L 323.0 853.0 L 320.0 852.0 L 320.0 850.0 L 285.0 851.0 Z M 751.0 813.0 L 744.0 813.0 L 743.0 812.0 L 726.0 813.0 L 717.0 817.0 L 711.0 824.0 L 676.0 915.0 L 674.0 923.0 L 665.0 944.0 L 662.0 954.0 L 698.0 954.0 L 723.0 887.0 L 726.0 881.0 L 728.0 879.0 L 733.0 877.0 L 748.0 877.0 L 752.0 878.0 L 756.0 882.0 L 756.0 887.0 L 732.0 948.0 L 731.0 954.0 L 767.0 953.0 L 768.0 948.0 L 780.0 919.0 L 796.0 874.0 L 796.0 864.0 L 793.0 858.0 L 790.0 855.0 L 779.0 851.0 L 747.0 851.0 L 737.0 853.0 L 737.0 850.0 L 748.0 823.0 Z M 297.0 803.0 L 176.0 803.0 L 163.0 806.0 L 154.0 811.0 L 145.0 820.0 L 140.0 829.0 L 126.0 867.0 L 126.0 877.0 L 130.0 882.0 L 140.0 886.0 L 202.0 900.0 L 206.0 905.0 L 203.0 916.0 L 200.0 921.0 L 194.0 925.0 L 111.0 925.0 L 84.0 954.0 L 205.0 954.0 L 217.0 951.0 L 227.0 945.0 L 232.0 940.0 L 239.0 929.0 L 253.0 890.0 L 252.0 880.0 L 247.0 874.0 L 240.0 871.0 L 178.0 856.0 L 174.0 851.0 L 177.0 839.0 L 182.0 834.0 L 187.0 832.0 L 271.0 832.0 Z M 954.0 607.0 L 947.0 598.0 L 940.0 595.0 L 930.0 595.0 L 923.0 598.0 L 916.0 608.0 L 802.0 610.0 L 771.0 641.0 L 730.0 666.0 L 709.0 674.0 L 680.0 680.0 L 628.0 679.0 L 612.0 682.0 L 591.0 693.0 L 566.0 723.0 L 566.0 725.0 L 592.0 730.0 L 644.0 731.0 L 679.0 725.0 L 729.0 707.0 L 734.0 719.0 L 693.0 736.0 L 651.0 743.0 L 605.0 740.0 L 564.0 727.0 L 547.0 750.0 L 585.0 762.0 L 629.0 767.0 L 665.0 765.0 L 714.0 753.0 L 740.0 742.0 L 766.0 727.0 L 830.0 673.0 L 872.0 674.0 L 878.0 684.0 L 888.0 689.0 L 901.0 687.0 L 909.0 680.0 L 912.0 673.0 L 912.0 663.0 L 909.0 656.0 L 898.0 648.0 L 890.0 647.0 L 880.0 651.0 L 872.0 662.0 L 822.0 663.0 L 781.0 697.0 L 760.0 711.0 L 757.0 710.0 L 750.0 695.0 L 796.0 657.0 L 824.0 620.0 L 914.0 620.0 L 924.0 633.0 L 937.0 636.0 L 946.0 633.0 L 953.0 626.0 L 955.0 621.0 Z M 890.0 657.0 L 894.0 657.0 L 896.0 658.0 L 901.0 663.0 L 902.0 665.0 L 902.0 672.0 L 901.0 674.0 L 897.0 678.0 L 894.0 679.0 L 889.0 679.0 L 887.0 678.0 L 882.0 673.0 L 881.0 671.0 L 881.0 665.0 L 882.0 663.0 L 887.0 658.0 Z M 929.0 606.0 L 931.0 605.0 L 939.0 605.0 L 941.0 606.0 L 944.0 609.0 L 945.0 611.0 L 946.0 614.0 L 946.0 617.0 L 944.0 621.0 L 940.0 625.0 L 937.0 626.0 L 933.0 626.0 L 930.0 625.0 L 926.0 621.0 L 925.0 619.0 L 925.0 611.0 L 927.0 608.0 Z M 446.0 571.0 L 415.0 571.0 L 414.0 633.0 L 403.0 633.0 L 403.0 635.0 L 413.0 653.0 L 425.0 671.0 L 429.0 674.0 L 481.0 623.0 L 488.0 614.0 L 492.0 606.0 L 494.0 600.0 L 494.0 596.0 L 446.0 595.0 Z M 262.0 498.0 L 261.0 500.0 L 261.0 538.0 L 266.0 543.0 L 304.0 543.0 L 309.0 538.0 L 309.0 525.0 L 311.0 523.0 L 388.0 523.0 L 390.0 525.0 L 389.0 607.0 L 338.0 606.0 L 338.0 597.0 L 333.0 593.0 L 296.0 593.0 L 291.0 597.0 L 290.0 600.0 L 290.0 635.0 L 293.0 640.0 L 297.0 642.0 L 332.0 642.0 L 337.0 639.0 L 338.0 637.0 L 339.0 617.0 L 400.0 617.0 L 399.0 513.0 L 311.0 513.0 L 309.0 511.0 L 309.0 499.0 L 304.0 494.0 L 267.0 494.0 Z M 300.0 601.0 L 302.0 600.0 L 327.0 600.0 L 329.0 601.0 L 330.0 602.0 L 331.0 604.0 L 331.0 631.0 L 329.0 633.0 L 327.0 634.0 L 301.0 634.0 L 298.0 631.0 L 298.0 604.0 L 299.0 602.0 Z M 299.0 502.0 L 301.0 504.0 L 302.0 506.0 L 302.0 532.0 L 299.0 535.0 L 297.0 536.0 L 272.0 536.0 L 269.0 533.0 L 268.0 511.0 L 268.0 508.0 L 269.0 504.0 L 271.0 502.0 L 288.0 501.0 L 293.0 501.0 Z M 817.0 591.0 L 874.0 591.0 L 895.0 556.0 L 947.0 556.0 L 948.0 560.0 L 955.0 567.0 L 960.0 569.0 L 971.0 569.0 L 978.0 566.0 L 983.0 561.0 L 986.0 554.0 L 986.0 544.0 L 983.0 537.0 L 977.0 531.0 L 968.0 528.0 L 959.0 529.0 L 952.0 533.0 L 945.0 544.0 L 889.0 544.0 L 883.0 555.0 L 879.0 560.0 L 877.0 565.0 L 873.0 570.0 L 871.0 575.0 L 867.0 580.0 L 853.0 579.0 L 853.0 577.0 L 870.0 543.0 L 872.0 532.0 L 874.0 510.0 L 874.0 486.0 L 873.0 472.0 L 871.0 461.0 L 858.0 470.0 L 853.0 472.0 L 851.0 502.0 L 844.0 533.0 L 833.0 562.0 Z M 963.0 538.0 L 969.0 538.0 L 971.0 539.0 L 976.0 544.0 L 977.0 547.0 L 977.0 551.0 L 975.0 555.0 L 972.0 558.0 L 968.0 560.0 L 964.0 560.0 L 961.0 559.0 L 956.0 554.0 L 955.0 552.0 L 955.0 546.0 L 956.0 544.0 L 958.0 542.0 L 958.0 541.0 L 959.0 540.0 Z M 461.0 447.0 L 460.0 471.0 L 415.0 471.0 L 415.0 555.0 L 461.0 556.0 L 461.0 580.0 L 475.0 580.0 L 476.0 581.0 L 491.0 580.0 L 494.0 581.0 L 495.0 577.0 L 494.0 570.0 L 485.0 530.0 L 482.0 506.0 L 482.0 488.0 L 484.0 469.0 L 488.0 450.0 L 489.0 449.0 L 489.0 447.0 Z M 285.0 406.0 L 283.0 410.0 L 283.0 447.0 L 284.0 449.0 L 288.0 452.0 L 324.0 453.0 L 327.0 452.0 L 330.0 450.0 L 332.0 446.0 L 333.0 434.0 L 390.0 435.0 L 390.0 497.0 L 400.0 497.0 L 400.0 427.0 L 399.0 426.0 L 399.0 424.0 L 332.0 423.0 L 332.0 410.0 L 330.0 406.0 L 325.0 403.0 L 291.0 403.0 L 288.0 404.0 Z M 293.0 412.0 L 295.0 411.0 L 320.0 411.0 L 322.0 412.0 L 323.0 413.0 L 324.0 415.0 L 324.0 442.0 L 321.0 445.0 L 294.0 445.0 L 291.0 442.0 L 291.0 414.0 Z M 351.0 335.0 L 348.0 338.0 L 347.0 340.0 L 347.0 380.0 L 351.0 384.0 L 390.0 384.0 L 404.0 382.0 L 418.0 382.0 L 422.0 385.0 L 419.0 388.0 L 413.0 396.0 L 413.0 397.0 L 410.0 399.0 L 407.0 406.0 L 405.0 409.0 L 415.0 410.0 L 415.0 455.0 L 446.0 455.0 L 446.0 382.0 L 444.0 380.0 L 441.0 379.0 L 438.0 376.0 L 433.0 373.0 L 397.0 373.0 L 395.0 371.0 L 395.0 340.0 L 394.0 338.0 L 390.0 335.0 Z M 358.0 342.0 L 383.0 342.0 L 385.0 343.0 L 387.0 345.0 L 388.0 347.0 L 388.0 359.0 L 387.0 374.0 L 385.0 376.0 L 383.0 377.0 L 359.0 377.0 L 357.0 376.0 L 354.0 373.0 L 354.0 346.0 Z M 863.0 329.0 L 846.0 318.0 L 819.0 311.0 L 802.0 312.0 L 782.0 318.0 L 766.0 328.0 L 757.0 337.0 L 734.0 326.0 L 708.0 318.0 L 681.0 315.0 L 659.0 316.0 L 634.0 321.0 L 609.0 330.0 L 586.0 342.0 L 564.0 358.0 L 542.0 380.0 L 523.0 407.0 L 510.0 434.0 L 501.0 464.0 L 498.0 507.0 L 510.0 573.0 L 510.0 598.0 L 507.0 609.0 L 498.0 625.0 L 412.0 711.0 L 407.0 722.0 L 407.0 735.0 L 413.0 748.0 L 464.0 793.0 L 475.0 797.0 L 493.0 795.0 L 503.0 787.0 L 574.0 691.0 L 592.0 675.0 L 604.0 669.0 L 624.0 664.0 L 678.0 664.0 L 706.0 658.0 L 738.0 644.0 L 769.0 622.0 L 800.0 587.0 L 824.0 542.0 L 835.0 499.0 L 835.0 464.0 L 855.0 454.0 L 873.0 437.0 L 887.0 407.0 L 889.0 382.0 L 886.0 366.0 L 878.0 347.0 Z M 747.0 346.0 L 749.0 349.0 L 740.0 368.0 L 737.0 386.0 L 739.0 409.0 L 747.0 429.0 L 765.0 450.0 L 777.0 458.0 L 800.0 466.0 L 820.0 466.0 L 822.0 468.0 L 822.0 491.0 L 816.0 522.0 L 810.0 539.0 L 796.0 567.0 L 779.0 591.0 L 762.0 609.0 L 737.0 628.0 L 714.0 640.0 L 679.0 650.0 L 619.0 652.0 L 603.0 656.0 L 585.0 665.0 L 567.0 681.0 L 493.0 781.0 L 483.0 786.0 L 469.0 782.0 L 424.0 742.0 L 419.0 734.0 L 418.0 724.0 L 422.0 717.0 L 506.0 634.0 L 517.0 615.0 L 522.0 594.0 L 522.0 578.0 L 511.0 515.0 L 511.0 478.0 L 520.0 441.0 L 535.0 410.0 L 550.0 389.0 L 581.0 360.0 L 605.0 345.0 L 632.0 334.0 L 658.0 328.0 L 686.0 327.0 L 721.0 334.0 Z M 528.0 536.0 L 532.0 555.0 L 535.0 578.0 L 534.0 600.0 L 528.0 621.0 L 521.0 634.0 L 506.0 652.0 L 446.0 714.0 L 432.0 730.0 L 476.0 770.0 L 480.0 772.0 L 485.0 768.0 L 555.0 676.0 L 571.0 660.0 L 583.0 652.0 L 604.0 643.0 L 619.0 640.0 L 651.0 640.0 L 650.0 638.0 L 644.0 634.0 L 606.0 601.0 L 587.0 586.0 L 573.0 573.0 L 567.0 569.0 L 541.0 546.0 Z M 806.0 323.0 L 823.0 323.0 L 837.0 327.0 L 847.0 332.0 L 855.0 338.0 L 862.0 345.0 L 870.0 357.0 L 874.0 366.0 L 877.0 378.0 L 877.0 399.0 L 873.0 413.0 L 868.0 423.0 L 864.0 429.0 L 851.0 442.0 L 845.0 446.0 L 837.0 450.0 L 828.0 453.0 L 823.0 454.0 L 803.0 454.0 L 795.0 452.0 L 780.0 445.0 L 774.0 441.0 L 764.0 431.0 L 756.0 419.0 L 751.0 406.0 L 749.0 396.0 L 749.0 382.0 L 751.0 372.0 L 756.0 359.0 L 763.0 348.0 L 775.0 336.0 L 786.0 329.0 L 796.0 325.0 Z M 789.0 301.0 L 777.0 291.0 L 752.0 275.0 L 723.0 261.0 L 703.0 254.0 L 674.0 247.0 L 648.0 244.0 L 619.0 244.0 L 599.0 246.0 L 574.0 251.0 L 546.0 260.0 L 514.0 275.0 L 499.0 284.0 L 471.0 305.0 L 446.0 330.0 L 426.0 357.0 L 438.0 357.0 L 461.0 373.0 L 461.0 431.0 L 495.0 431.0 L 497.0 424.0 L 509.0 400.0 L 522.0 380.0 L 531.0 369.0 L 553.0 347.0 L 567.0 336.0 L 582.0 326.0 L 608.0 313.0 L 640.0 303.0 L 659.0 300.0 L 680.0 299.0 L 703.0 301.0 L 725.0 306.0 L 746.0 314.0 L 754.0 319.0 L 757.0 319.0 L 770.0 309.0 Z M 734.0 294.0 L 732.0 295.0 L 729.0 293.0 L 699.0 284.0 L 669.0 279.0 L 640.0 278.0 L 639.0 279.0 L 624.0 279.0 L 599.0 283.0 L 565.0 293.0 L 533.0 308.0 L 517.0 318.0 L 495.0 335.0 L 474.0 357.0 L 471.0 359.0 L 460.0 351.0 L 460.0 349.0 L 477.0 331.0 L 493.0 317.0 L 511.0 304.0 L 528.0 294.0 L 547.0 285.0 L 572.0 276.0 L 588.0 272.0 L 615.0 268.0 L 649.0 268.0 L 665.0 270.0 L 681.0 273.0 L 702.0 279.0 L 722.0 287.0 L 732.0 292.0 Z" fill="#0a1d25" stroke="#0a1d25" stroke-width="0.5" fill-rule="evenodd"/><path d="M 954.0 850.0 L 925.0 928.0 L 924.0 932.0 L 924.0 943.0 L 926.0 947.0 L 930.0 951.0 L 936.0 954.0 L 942.0 955.0 L 969.0 955.0 L 981.0 952.0 L 984.0 952.0 L 984.0 954.0 L 1020.0 954.0 L 1029.0 931.0 L 1034.0 915.0 L 1041.0 899.0 L 1047.0 880.0 L 1051.0 872.0 L 1053.0 864.0 L 1056.0 859.0 L 1058.0 853.0 L 1058.0 850.0 L 1021.0 851.0 L 1021.0 853.0 L 1019.0 856.0 L 1011.0 880.0 L 1004.0 896.0 L 1002.0 904.0 L 996.0 920.0 L 993.0 924.0 L 988.0 926.0 L 970.0 926.0 L 966.0 923.0 L 966.0 916.0 L 980.0 881.0 L 991.0 850.0 Z M 1125.0 812.0 L 1090.0 812.0 L 1088.0 813.0 L 1086.0 817.0 L 1085.0 822.0 L 1081.0 830.0 L 1075.0 849.0 L 1071.0 857.0 L 1049.0 916.0 L 1046.0 927.0 L 1038.0 946.0 L 1036.0 954.0 L 1116.0 954.0 L 1121.0 953.0 L 1127.0 951.0 L 1137.0 945.0 L 1145.0 937.0 L 1149.0 931.0 L 1154.0 921.0 L 1157.0 910.0 L 1163.0 897.0 L 1171.0 874.0 L 1171.0 870.0 L 1172.0 869.0 L 1172.0 866.0 L 1171.0 865.0 L 1171.0 861.0 L 1170.0 859.0 L 1165.0 854.0 L 1158.0 851.0 L 1153.0 850.0 L 1119.0 850.0 L 1112.0 849.0 L 1115.0 838.0 L 1120.0 827.0 Z M 1127.0 877.0 L 1130.0 880.0 L 1130.0 885.0 L 1119.0 916.0 L 1117.0 920.0 L 1113.0 924.0 L 1111.0 925.0 L 1108.0 926.0 L 1084.0 923.0 L 1084.0 921.0 L 1088.0 913.0 L 1090.0 905.0 L 1094.0 897.0 L 1096.0 889.0 L 1099.0 881.0 L 1100.0 879.0 L 1102.0 877.0 Z M 837.0 813.0 L 836.0 818.0 L 830.0 831.0 L 828.0 839.0 L 824.0 847.0 L 803.0 906.0 L 786.0 949.0 L 785.0 954.0 L 823.0 954.0 L 844.0 899.0 L 881.0 900.0 L 881.0 903.0 L 863.0 948.0 L 862.0 954.0 L 900.0 954.0 L 932.0 867.0 L 952.0 817.0 L 953.0 812.0 L 930.0 812.0 L 921.0 814.0 L 915.0 818.0 L 908.0 829.0 L 893.0 869.0 L 856.0 868.0 L 860.0 854.0 L 876.0 812.0 Z M 733.0 718.0 L 727.0 707.0 L 714.0 714.0 L 690.0 723.0 L 671.0 728.0 L 654.0 731.0 L 645.0 732.0 L 600.0 732.0 L 584.0 730.0 L 573.0 728.0 L 568.0 726.0 L 565.0 727.0 L 567.0 727.0 L 570.0 728.0 L 573.0 730.0 L 585.0 734.0 L 606.0 739.0 L 618.0 741.0 L 634.0 742.0 L 647.0 742.0 L 648.0 741.0 L 662.0 741.0 L 669.0 740.0 L 696.0 734.0 L 703.0 732.0 L 724.0 724.0 L 732.0 720.0 Z M 890.0 658.0 L 887.0 659.0 L 883.0 663.0 L 882.0 665.0 L 882.0 671.0 L 883.0 673.0 L 887.0 677.0 L 889.0 678.0 L 894.0 678.0 L 898.0 676.0 L 899.0 675.0 L 901.0 671.0 L 901.0 665.0 L 900.0 663.0 L 896.0 659.0 L 894.0 658.0 Z M 420.0 734.0 L 425.0 742.0 L 438.0 755.0 L 469.0 781.0 L 480.0 785.0 L 489.0 783.0 L 494.0 778.0 L 513.0 751.0 L 566.0 681.0 L 578.0 669.0 L 590.0 661.0 L 600.0 656.0 L 622.0 650.0 L 610.0 650.0 L 588.0 654.0 L 580.0 658.0 L 574.0 659.0 L 570.0 662.0 L 556.0 676.0 L 493.0 759.0 L 481.0 773.0 L 476.0 771.0 L 441.0 740.0 L 431.0 729.0 L 506.0 650.0 L 486.0 668.0 L 428.0 726.0 L 419.0 726.0 Z M 931.0 606.0 L 928.0 608.0 L 926.0 612.0 L 926.0 619.0 L 927.0 621.0 L 929.0 623.0 L 933.0 625.0 L 937.0 625.0 L 940.0 624.0 L 943.0 621.0 L 945.0 617.0 L 945.0 614.0 L 944.0 611.0 L 943.0 609.0 L 941.0 607.0 L 939.0 606.0 Z M 302.0 601.0 L 299.0 604.0 L 300.0 632.0 L 302.0 633.0 L 327.0 633.0 L 329.0 632.0 L 330.0 604.0 L 327.0 601.0 Z M 963.0 539.0 L 961.0 540.0 L 957.0 544.0 L 956.0 546.0 L 956.0 551.0 L 957.0 554.0 L 961.0 558.0 L 964.0 559.0 L 968.0 559.0 L 972.0 557.0 L 974.0 555.0 L 975.0 553.0 L 976.0 548.0 L 975.0 544.0 L 971.0 540.0 L 968.0 539.0 Z M 270.0 504.0 L 271.0 534.0 L 273.0 535.0 L 297.0 535.0 L 299.0 534.0 L 301.0 532.0 L 301.0 506.0 L 300.0 504.0 L 272.0 503.0 Z M 293.0 413.0 L 293.0 443.0 L 295.0 444.0 L 320.0 444.0 L 322.0 443.0 L 323.0 415.0 L 320.0 412.0 L 295.0 412.0 Z M 357.0 344.0 L 356.0 345.0 L 355.0 347.0 L 355.0 372.0 L 356.0 374.0 L 357.0 375.0 L 359.0 376.0 L 364.0 376.0 L 386.0 374.0 L 387.0 355.0 L 387.0 350.0 L 385.0 344.0 L 383.0 343.0 L 359.0 343.0 Z M 690.0 336.0 L 665.0 336.0 L 636.0 342.0 L 607.0 354.0 L 580.0 372.0 L 555.0 397.0 L 540.0 419.0 L 528.0 446.0 L 523.0 464.0 L 520.0 483.0 L 520.0 513.0 L 522.0 518.0 L 616.0 598.0 L 669.0 641.0 L 681.0 640.0 L 698.0 636.0 L 727.0 623.0 L 749.0 608.0 L 767.0 591.0 L 784.0 569.0 L 798.0 544.0 L 807.0 521.0 L 813.0 494.0 L 813.0 468.0 L 795.0 466.0 L 783.0 462.0 L 770.0 455.0 L 753.0 439.0 L 743.0 423.0 L 738.0 410.0 L 736.0 395.0 L 737.0 376.0 L 744.0 356.0 L 743.0 353.0 L 726.0 345.0 L 711.0 340.0 Z M 730.0 293.0 L 728.0 291.0 L 724.0 290.0 L 717.0 286.0 L 692.0 277.0 L 676.0 273.0 L 658.0 270.0 L 647.0 269.0 L 616.0 269.0 L 588.0 273.0 L 569.0 278.0 L 552.0 284.0 L 536.0 291.0 L 516.0 302.0 L 497.0 315.0 L 475.0 334.0 L 462.0 348.0 L 462.0 352.0 L 468.0 356.0 L 472.0 357.0 L 502.0 328.0 L 514.0 319.0 L 531.0 308.0 L 546.0 300.0 L 570.0 290.0 L 573.0 290.0 L 576.0 288.0 L 603.0 281.0 L 635.0 277.0 L 658.0 277.0 L 669.0 278.0 L 699.0 283.0 L 721.0 289.0 Z" fill="#11d5e2" stroke="#11d5e2" stroke-width="0.5" fill-rule="evenodd"/><path d="M 389.0 526.0 L 388.0 606.0 L 339.0 605.0 L 339.0 599.0 L 339.0 606.0 L 389.0 606.0 Z M 814.0 467.0 L 814.0 488.0 L 821.0 490.0 L 820.0 467.0 Z M 389.0 436.0 L 389.0 498.0 L 399.0 498.0 L 389.0 497.0 Z" fill="#7d8b8f" stroke="#7d8b8f" stroke-width="0.5" fill-rule="evenodd"/>
</svg>